<?xml version="1.0" standalone="no"?>
<!DOCTYPE svg PUBLIC "-//W3C//DTD SVG 20010904//EN"
 "http://www.w3.org/TR/2001/REC-SVG-20010904/DTD/svg10.dtd">
<svg version="1.0" xmlns="http://www.w3.org/2000/svg"
 width="260.000000pt" height="260.000000pt" viewBox="0 0 260.000000 260.000000"
 preserveAspectRatio="xMidYMid meet">
<metadata>
Created by potrace 1.11, written by Peter Selinger 2001-2013
</metadata>
<g transform="translate(0.000000,260.000000) scale(0.100000,-0.100000)"
fill="#000000" stroke="none">
<path d="M332 2478 c-19 -25 -40 -75 -44 -103 -2 -17 -12 -40 -23 -52 -20 -24
-23 -34 -29 -99 -2 -23 -9 -50 -14 -60 -9 -17 -21 -84 -25 -136 -1 -10 -4 -18
-7 -18 -3 0 -7 -12 -7 -27 -2 -33 -4 -250 -3 -275 0 -10 0 -28 0 -40 -1 -13 4
-48 10 -78 6 -30 12 -72 15 -92 2 -21 11 -51 20 -68 9 -16 13 -30 9 -30 -4 0
-2 -6 4 -13 6 -7 13 -24 15 -38 6 -32 66 -139 77 -139 5 0 12 -10 16 -22 7
-23 141 -158 156 -158 5 0 21 -9 37 -21 15 -11 34 -21 42 -23 8 -1 35 -10 62
-20 59 -23 158 -18 219 13 23 11 44 18 47 15 3 -3 -4 -23 -16 -45 -12 -21 -17
-39 -11 -39 6 0 -5 -16 -25 -35 -21 -21 -30 -35 -22 -35 8 0 15 -4 15 -10 0
-5 -4 -10 -10 -10 -5 0 -10 -7 -10 -15 0 -8 7 -15 15 -15 14 0 13 -3 -1 -25
-15 -23 -15 -25 1 -25 13 0 15 -3 7 -13 -5 -6 -24 -39 -42 -72 -56 -106 -71
-113 -127 -65 -36 32 -53 36 -83 20 -15 -8 -24 -2 -54 35 -53 64 -94 104 -138
131 -20 13 -40 24 -43 24 -2 0 5 -18 16 -40 25 -47 20 -72 -13 -66 -13 2 -36
-1 -51 -7 l-28 -9 48 -30 c31 -19 66 -54 98 -100 69 -98 70 -99 100 -85 14 7
25 15 25 20 0 4 6 7 13 7 17 0 49 -34 41 -43 -10 -10 7 -47 22 -47 8 0 14 -4
14 -8 0 -13 60 -44 76 -38 11 4 202 -81 223 -100 2 -2 -7 -25 -20 -51 -43 -87
-43 -84 -4 -80 19 2 46 12 61 22 l28 18 -22 -37 -21 -36 27 6 c15 3 40 13 56
20 36 17 44 18 28 2 -39 -39 27 -35 80 4 l36 28 -11 -30 c-6 -16 -15 -30 -19
-30 -16 0 -7 -18 10 -22 24 -7 90 25 108 51 13 18 15 18 48 -15 19 -19 42 -34
53 -35 10 0 26 -2 36 -4 18 -3 22 5 9 21 -5 5 -14 22 -20 37 l-12 28 33 -25
c19 -14 48 -29 66 -32 30 -6 33 -5 27 14 -7 20 -6 20 21 8 41 -20 83 -28 83
-16 0 5 -4 10 -8 10 -5 0 -14 11 -19 23 l-11 24 36 -19 c31 -15 82 -25 82 -15
0 2 -14 32 -31 67 -16 34 -27 66 -22 70 4 3 28 15 53 25 25 11 65 32 90 47 30
17 54 25 68 21 15 -3 38 5 72 27 40 26 50 37 50 60 0 41 24 57 55 36 41 -27
58 -20 97 42 46 71 91 118 136 141 l35 18 -29 9 c-16 6 -41 10 -56 9 -34 -1
-36 15 -9 68 10 20 15 37 11 37 -11 0 -100 -68 -124 -94 -10 -12 -34 -40 -52
-62 -33 -40 -36 -41 -64 -31 -25 10 -33 8 -57 -11 -53 -43 -72 -48 -93 -26
-27 28 -92 158 -80 162 5 2 3 14 -6 28 -15 22 -15 24 0 24 9 0 16 7 16 15 0 8
-4 15 -10 15 -5 0 -10 5 -10 10 0 6 7 10 15 10 11 0 6 10 -15 30 -16 16 -30
37 -30 47 0 10 -7 27 -15 37 -30 39 -17 44 48 21 34 -12 85 -23 112 -24 55 -2
172 34 205 62 11 9 24 17 28 17 10 0 137 126 173 172 15 18 29 43 33 55 4 11
13 27 21 33 8 7 15 23 15 36 0 12 5 26 10 29 6 3 10 13 10 21 0 8 7 31 17 52
9 20 18 53 19 72 2 19 8 60 14 90 15 75 20 221 9 242 -6 10 -5 19 1 23 5 3 8
25 5 48 -10 105 -15 139 -24 155 -4 9 -9 34 -9 55 -1 20 -6 46 -12 56 -5 11
-12 39 -14 63 -6 54 -21 95 -37 100 -7 2 -14 15 -14 29 -2 32 -27 99 -37 99
-4 0 -8 7 -8 15 0 8 -4 15 -9 15 -6 0 -9 -30 -9 -67 2 -132 -24 -228 -87 -314
-74 -100 -150 -152 -315 -214 -81 -31 -114 -54 -137 -98 -8 -16 -30 -46 -49
-67 -29 -32 -40 -38 -70 -36 -41 4 -41 4 -48 39 -2 14 -7 31 -10 36 -4 5 -2
12 4 16 14 9 12 28 -2 22 -7 -2 -22 0 -33 6 -18 10 -18 10 5 20 l25 10 -27 10
c-34 13 -35 23 -5 31 21 6 20 8 -13 22 -31 14 -33 17 -15 24 11 4 23 6 26 4 4
-2 12 3 19 11 10 13 8 15 -14 15 -34 0 -53 31 -60 103 -3 32 -10 66 -16 76 -7
14 -6 22 4 30 7 6 13 30 14 53 1 42 1 42 -13 18 -13 -24 -13 -24 -10 17 2 24
-1 46 -6 49 -5 3 -9 -4 -9 -14 0 -36 -28 -47 -126 -48 -69 0 -99 -5 -118 -18
-26 -17 -30 -15 -27 17 3 21 -15 23 -23 2 -3 -8 -13 -15 -23 -15 -23 -1 -64
-30 -42 -30 10 -1 9 -3 -3 -11 -22 -12 -24 -31 -3 -23 29 12 15 -14 -15 -26
-38 -16 -70 -59 -70 -95 l0 -27 31 26 c17 14 34 26 37 27 76 10 120 -1 83 -21
-16 -8 -31 -9 -52 -1 -27 9 -29 8 -29 -14 0 -13 9 -33 21 -43 17 -16 26 -18
57 -10 75 18 80 18 86 3 9 -23 -4 -45 -30 -51 -18 -5 -22 -9 -14 -19 8 -9 5
-14 -12 -18 -18 -5 -20 -9 -10 -19 18 -18 15 -26 -10 -31 -23 -4 -23 -4 2 -14
l25 -10 -25 -9 c-14 -4 -28 -7 -32 -6 -4 1 -6 -8 -5 -21 2 -39 -14 -85 -32
-90 -65 -17 -109 10 -163 99 -34 57 -41 61 -173 114 -116 46 -178 84 -231 143
-78 87 -112 154 -129 252 -8 49 -8 162 0 175 9 15 -11 12 -23 -2z m764 -1745
c-5 -76 -90 -339 -108 -335 -6 2 -31 12 -55 23 -45 20 -63 43 -63 79 0 13 -8
24 -20 27 -33 9 -22 37 45 111 43 47 82 72 103 65 6 -3 12 -1 12 4 0 4 4 14 9
22 8 12 12 12 25 2 13 -11 17 -7 30 23 8 20 18 36 21 36 3 0 4 -26 1 -57z
m438 11 c6 -22 9 -24 22 -13 13 10 17 10 25 -2 5 -8 9 -18 9 -22 0 -5 6 -7 13
-4 28 10 122 -69 155 -131 16 -32 15 -40 -7 -47 -12 -3 -21 -19 -24 -43 -7
-38 -11 -41 -109 -84 -14 -6 -24 16 -64 140 -47 146 -66 265 -39 242 7 -6 16
-22 19 -36z"/>
</g>
</svg>
