<svg xmlns="http://www.w3.org/2000/svg" width="54" height="54" viewBox="0 0 54 54">
  <g fill="none" fill-rule="evenodd">
    <rect width="54" height="54" x=".5" rx="2"/>
    <g fill="#0B396D" stroke="#0B396D" stroke-width=".55" transform="translate(5.5 6.692)">
      <path d="M21.2077431 27.9254945L21.2077431 39.6971868C21.2077431 40.0936703 21.529765 40.4156923 21.9262485 40.4156923 22.3227321 40.4156923 22.644754 40.0936703 22.644754 39.6971868L22.644754 27.9254945C22.644754 27.529011 22.3227321 27.206989 21.9262485 27.206989 21.529765 27.206989 21.2077431 27.529011 21.2077431 27.9254945zM31.7290617 24.9513846C31.7290617 24.5549011 31.4070398 24.2328791 31.0105562 24.2328791L12.8419409 24.2328791C12.4454573 24.2328791 12.1234354 24.5549011 12.1234354 24.9513846 12.1234354 25.3478681 12.4454573 25.6698901 12.8419409 25.6698901L31.0105562 25.6698901C31.4070398 25.6698901 31.7290617 25.3478681 31.7290617 24.9513846z"/>
      <path fill-rule="nonzero" d="M26.2411496,4.46237363 C26.2411496,2.112 24.328842,0.199692308 21.9784683,0.199692308 C19.6276112,0.199692308 17.7153035,2.112 17.7153035,4.46237363 C17.7153035,6.81323077 19.6276112,8.72553846 21.9784683,8.72553846 C24.328842,8.72553846 26.2411496,6.81323077 26.2411496,4.46237363 Z M19.1523145,4.46237363 C19.1523145,2.904 20.4200947,1.6367033 21.9784683,1.6367033 C23.536842,1.6367033 24.8041387,2.904 24.8041387,4.46237363 C24.8041387,6.02074725 23.536842,7.28852747 21.9784683,7.28852747 C20.4200947,7.28852747 19.1523145,6.02074725 19.1523145,4.46237363 Z"/>
      <path d="M16.2352595,14.6244396 L16.2352595,21.9028132 C16.2352595,22.2992967 16.5572815,22.6213187 16.953765,22.6213187 C17.349765,22.6213187 17.67082,22.3007473 17.671787,21.9052308 C17.671787,21.9042637 17.671787,21.9037802 17.671787,21.9032967 L17.671787,14.6244396 C17.671787,12.9335824 19.0454573,11.557978 20.7334134,11.557978 L23.113765,11.557978 C24.668754,11.557978 25.9776332,12.7237363 26.1579848,14.2637363 C26.1710398,14.3826813 26.1802266,14.5011429 26.1802266,14.6244396 L26.1802266,21.9298901 L26.1802266,21.9318242 C26.1802266,22.3283077 26.5022485,22.6503297 26.8987321,22.6503297 C27.2952156,22.6503297 27.6172376,22.3283077 27.6172376,21.9318242 L27.6172376,14.6244396 C27.6172376,14.447956 27.6051496,14.2767912 27.585809,14.1017582 C27.3198749,11.8330989 25.3974134,10.1214505 23.113765,10.1214505 L20.7334134,10.1214505 C18.2534573,10.1214505 16.2352595,12.1410989 16.2352595,14.6244396 Z"/>
      <path fill-rule="nonzero" d="M39.4469518 8.82030769C37.1101167 8.82030769 35.2094134 10.721011 35.2094134 13.0578462 35.2094134 15.3946813 37.1101167 17.2953846 39.4469518 17.2953846 41.783787 17.2953846 43.6844903 15.3941978 43.6844903 13.0573626 43.6844903 10.7205275 41.783787 8.82030769 39.4469518 8.82030769zM39.4469518 15.8583736C37.9026002 15.8583736 36.6464244 14.6021978 36.6464244 13.0578462 36.6464244 11.5134945 37.9026002 10.2573187 39.4469518 10.2573187 40.9913035 10.2573187 42.2474793 11.5134945 42.2474793 13.0578462 42.2474793 14.6017143 40.9913035 15.8583736 39.4469518 15.8583736zM39.7506002 18.2396923L38.7700288 18.2396923C36.6082266 18.2396923 34.8491936 19.9987253 34.8491936 22.1605275L34.8491936 27.5759121 32.544754 27.5759121C30.1716551 27.5759121 28.2409738 29.5065934 28.2409738 31.8796923L28.2409738 38.6150769C28.2409738 39.6029011 29.0450617 40.406989 30.0328859 40.406989L32.9393035 40.406989C33.9271277 40.406989 34.7312156 39.6029011 34.7312156 38.6150769L34.7312156 34.2996923 39.4687101 34.2996923C41.7866881 34.2996923 43.6724024 32.413978 43.6724024 30.096L43.6724024 22.1605275C43.6719189 19.9987253 41.9128859 18.2396923 39.7506002 18.2396923zM42.2349079 30.096C42.2349079 31.6214945 40.9937211 32.8631648 39.4677431 32.8631648L34.0122266 32.8631648C33.6157431 32.8631648 33.2937211 33.1851868 33.2937211 33.5816703L33.2937211 38.6155604C33.2937211 38.8113846 33.1346441 38.9704615 32.93882 38.9704615L30.0324024 38.9704615C29.8365782 38.9704615 29.6775013 38.8113846 29.6775013 38.6155604L29.6775013 31.8801758C29.6775013 30.2995604 30.9636551 29.0129231 32.544754 29.0129231L35.5676991 29.0129231C35.9641826 29.0129231 36.2862046 28.6909011 36.2862046 28.2944176L36.2862046 22.1605275C36.2862046 20.7912088 37.4007101 19.6767033 38.7700288 19.6767033L39.7506002 19.6767033C41.1204024 19.6767033 42.2349079 20.7912088 42.2349079 22.1605275L42.2349079 30.096 42.2349079 30.096zM4.40554525 17.2949011C6.74238041 17.2949011 8.64308371 15.3941978 8.64308371 13.0573626 8.64308371 10.7205275 6.74238041 8.81982418 4.40554525 8.81982418 2.06871008 8.81982418.168006787 10.721011.168006787 13.0573626.168006787 15.3937143 2.06871008 17.2949011 4.40554525 17.2949011zM4.40554525 10.2568352C5.9498969 10.2568352 7.20607272 11.513011 7.20607272 13.0573626 7.20607272 14.6017143 5.9498969 15.8578901 4.40554525 15.8578901 2.8611936 15.8578901 1.60501778 14.6017143 1.60501778 13.0573626 1.60501778 11.513011 2.8611936 10.2568352 4.40554525 10.2568352zM10.9136771 40.406989L13.8205782 40.406989C14.8084024 40.406989 15.6124903 39.6029011 15.6124903 38.6150769L15.6124903 31.8796923C15.6124903 29.5065934 13.681809 27.5759121 11.3087101 27.5759121L9.00378701 27.5759121 9.00378701 22.1605275C9.00378701 19.9987253 7.24475404 18.2396923 5.08295184 18.2396923L4.10238041 18.2396923C1.94057822 18.2396923.181545249 19.9987253.181545249 22.1605275L.181545249 30.096C.181545249 32.413978 2.06725953 34.2996923 4.38475404 34.2996923L9.12224855 34.2996923 9.12224855 38.6150769C9.12176503 39.6033846 9.92585294 40.406989 10.9136771 40.406989zM4.38427052 32.8631648C2.85877602 32.8631648 1.6175892 31.621978 1.6175892 30.096L1.6175892 22.1605275C1.6175892 20.7912088 2.7320947 19.6767033 4.10141338 19.6767033L5.08198481 19.6767033C6.45130349 19.6767033 7.56580898 20.7912088 7.56580898 22.1605275L7.56580898 28.2944176C7.56580898 28.6909011 7.88783096 29.0129231 8.28431448 29.0129231L11.3077431 29.0129231C12.8883584 29.0129231 14.1749958 30.2990769 14.1749958 31.8801758L14.1749958 38.6155604C14.1749958 38.8113846 14.0159189 38.9704615 13.8200947 38.9704615L10.9131936 38.9704615C10.7173694 38.9704615 10.5582925 38.8113846 10.5582925 38.6155604L10.5582925 33.5816703C10.5582925 33.1851868 10.2362705 32.8631648 9.83978701 32.8631648L4.38427052 32.8631648z"/>
    </g>
  </g>
</svg>
