<svg xmlns="http://www.w3.org/2000/svg" width="54" height="54" viewBox="0 0 54 54">
  <g fill="none" fill-rule="evenodd">
    <rect width="54" height="54" x=".5" rx="2"/>
    <path fill="#0B396D" fill-rule="nonzero" stroke="#0B396D" stroke-width=".5" d="M43.3689655,7.00137931 C43.3662069,7.00137931 43.3641379,7 43.362069,7 L16.4655172,7 C13.8034483,7 11.637931,9.16551724 11.637931,11.8275862 L11.637931,38.7241379 L8.18965517,38.7241379 C7.80896552,38.7241379 7.5,39.0331034 7.5,39.4137931 L7.5,42.862069 C7.5,45.1441379 9.35586207,47 11.637931,47 L35.7758621,47 C38.4372414,47 40.6034483,44.8337931 40.6034483,42.1724138 L40.6034483,15.9655172 L46.8103448,15.9655172 C47.1910345,15.9655172 47.5,15.6565517 47.5,15.2758621 L47.5,11.137931 C47.5,8.88206897 45.68,7.00896552 43.3689655,7.00137931 Z M11.637931,45.6206897 C10.1165517,45.6206897 8.87931034,44.3834483 8.87931034,42.862069 L8.87931034,40.1034483 L31.637931,40.1034483 L31.637931,42.862069 C31.637931,43.9206897 32.037931,44.8882759 32.6944828,45.6206897 L11.637931,45.6206897 Z M39.2241379,42.1724138 C39.2241379,44.0737931 37.6772414,45.6206897 35.7758621,45.6206897 C34.2544828,45.6206897 33.0172414,44.3834483 33.0172414,42.862069 L33.0172414,39.4137931 C33.0172414,39.0331034 32.7082759,38.7241379 32.3275862,38.7241379 L13.0172414,38.7241379 L13.0172414,11.8275862 C13.0172414,9.9262069 14.5641379,8.37931034 16.4655172,8.37931034 L40.3303448,8.37931034 C39.6441379,9.15034483 39.2241379,10.1765517 39.2241379,11.2862069 L39.2241379,42.1724138 Z M46.1206897,14.5862069 L40.6034483,14.5862069 L40.6034483,11.2862069 C40.6034483,9.79655172 41.6951724,8.52551724 43.0889655,8.39241379 C44.7655172,8.23034483 46.1206897,9.55724138 46.1206897,11.137931 L46.1206897,14.5862069 Z M35.0862069,18.7241379 C35.0862069,19.1048276 34.7772414,19.4137931 34.3965517,19.4137931 L17.8448276,19.4137931 C17.4641379,19.4137931 17.1551724,19.1048276 17.1551724,18.7241379 C17.1551724,18.3434483 17.4641379,18.0344828 17.8448276,18.0344828 L34.3965517,18.0344828 C34.7772414,18.0344828 35.0862069,18.3434483 35.0862069,18.7241379 Z M35.0862069,22.862069 C35.0862069,23.2427586 34.7772414,23.5517241 34.3965517,23.5517241 L17.8448276,23.5517241 C17.4641379,23.5517241 17.1551724,23.2427586 17.1551724,22.862069 C17.1551724,22.4813793 17.4641379,22.1724138 17.8448276,22.1724138 L34.3965517,22.1724138 C34.7772414,22.1724138 35.0862069,22.4813793 35.0862069,22.862069 Z M35.0862069,27 C35.0862069,27.3806897 34.7772414,27.6896552 34.3965517,27.6896552 L17.8448276,27.6896552 C17.4641379,27.6896552 17.1551724,27.3806897 17.1551724,27 C17.1551724,26.6193103 17.4641379,26.3103448 17.8448276,26.3103448 L34.3965517,26.3103448 C34.7772414,26.3103448 35.0862069,26.6193103 35.0862069,27 Z M35.0862069,31.137931 C35.0862069,31.5186207 34.7772414,31.8275862 34.3965517,31.8275862 L17.8448276,31.8275862 C17.4641379,31.8275862 17.1551724,31.5186207 17.1551724,31.137931 C17.1551724,30.7572414 17.4641379,30.4482759 17.8448276,30.4482759 L34.3965517,30.4482759 C34.7772414,30.4482759 35.0862069,30.7572414 35.0862069,31.137931 Z"/>
  </g>
</svg>
