<svg xmlns="http://www.w3.org/2000/svg" width="40" height="40" viewBox="0 0 40 40">
  <g fill="none" fill-rule="evenodd" transform="translate(-1)">
    <rect width="40" height="40" x=".999" fill="#C0CCDA" rx="20"/>
    <g transform="translate(8.999 8)">
      <rect width="24" height="24"/>
      <path fill="#FFF" fill-rule="nonzero" d="M11.1666667,10.3333333 C10.7064294,10.3333333 10.3333333,10.7064294 10.3333333,11.1666667 L10.3333333,18.6666667 C10.3333333,19.126904 10.7064294,19.5 11.1666667,19.5 L18.6666667,19.5 C19.126904,19.5 19.5,19.126904 19.5,18.6666667 L19.5,11.1666667 C19.5,10.7064294 19.126904,10.3333333 18.6666667,10.3333333 L11.1666667,10.3333333 Z M11.1666667,8.66666665 L18.6666667,8.66666665 C20.0473786,8.66666665 21.1666667,9.78595478 21.1666667,11.1666667 L21.1666667,18.6666667 C21.1666667,20.0473786 20.0473786,21.1666667 18.6666667,21.1666667 L11.1666667,21.1666667 C9.78595478,21.1666667 8.66666665,20.0473786 8.66666665,18.6666667 L8.66666665,11.1666667 C8.66666665,9.78595478 9.78595478,8.66666665 11.1666667,8.66666665 Z M6.16666664,13.6666667 C6.62690393,13.6666667 6.99999997,14.0397627 6.99999997,14.5 C6.99999997,14.9602373 6.62690393,15.3333334 6.16666664,15.3333334 L5.3333333,15.3333334 C3.95262142,15.3333334 2.83333329,14.2140452 2.83333329,12.8333333 L2.83333329,5.3333333 C2.83333329,3.95262142 3.95262142,2.83333329 5.3333333,2.83333329 L12.8333333,2.83333329 C14.2140452,2.83333329 15.3333333,3.95262142 15.3333333,5.3333333 L15.3333333,6.16666664 C15.3333333,6.62690393 14.9602373,6.99999998 14.5,6.99999998 C14.0397627,6.99999998 13.6666667,6.62690393 13.6666667,6.16666664 L13.6666667,5.3333333 C13.6666667,4.87309601 13.2935706,4.49999996 12.8333333,4.49999996 L5.3333333,4.49999996 C4.87309601,4.49999996 4.49999996,4.87309601 4.49999996,5.3333333 L4.49999996,12.8333333 C4.49999996,13.2935706 4.87309601,13.6666667 5.3333333,13.6666667 L6.16666664,13.6666667 Z"/>
    </g>
  </g>
</svg>
