<svg xmlns="http://www.w3.org/2000/svg" width="55" height="54" viewBox="0 0 55 54">
  <g fill="none" fill-rule="evenodd">
    <rect width="54" height="54" x=".5" rx="2"/>
    <path fill="#0B396D" fill-rule="nonzero" d="M46.6666667,26.9997453 L44.7666667,26.9997453 L40.6,14.4997453 L44.1666667,14.4997453 C44.626904,14.4997453 45,14.1266493 45,13.666412 C45,13.2061747 44.626904,12.8330787 44.1666667,12.8330787 L40,12.8330787 L40,12.566412 C39.887597,12.2244332 39.568311,11.9932869 39.2083333,11.9932869 C38.8483557,11.9932869 38.5290697,12.2244332 38.4166667,12.566412 L38.3333333,12.8330787 L28.3333333,12.8330787 L28.3333333,7.83307867 C28.3333333,7.37284138 27.9602373,6.99974533 27.5,6.99974533 C27.0397627,6.99974533 26.6666667,7.37284138 26.6666667,7.83307867 L26.6666667,12.8330787 L16.7083333,12.8330787 L16.6666667,12.566412 C16.5542637,12.2244332 16.2349777,11.9932869 15.875,11.9932869 C15.5150223,11.9932869 15.1957363,12.2244332 15.0833333,12.566412 L15,12.8330787 L10.8333333,12.8330787 C10.373096,12.8330787 10,13.2061747 10,13.666412 C10,14.1266493 10.373096,14.4997453 10.8333333,14.4997453 L14.4,14.4997453 L10.2333333,26.9997453 L8.33333333,26.9997453 C7.87309604,26.9997453 7.5,27.3728414 7.5,27.8330787 C7.5,28.141412 7.55,35.3330787 11.6666667,35.3330787 L20,35.3330787 C24.1166667,35.3330787 24.1666667,28.141412 24.1666667,27.8330787 C24.1666667,27.3728414 23.7935706,26.9997453 23.3333333,26.9997453 L21.4333333,26.9997453 L17.2666667,14.4997453 L26.6666667,14.4997453 L26.6666667,38.666412 L19.9083333,38.666412 C18.5990027,38.6625505 17.4565161,39.5538277 17.1416667,40.8247453 L15.8333333,45.966412 C15.7700867,46.2156491 15.8254424,46.4801262 15.9833333,46.6830787 C16.147699,46.8914138 16.4014616,47.0090111 16.6666667,46.9997453 L38.3333333,46.9997453 C38.589817,47.001127 38.8326482,46.884322 38.9916667,46.6830787 C39.1495576,46.4801262 39.2049133,46.2156491 39.1416667,45.966412 L37.8583333,40.8247453 C37.5434839,39.5538277 36.4009973,38.6625505 35.0916667,38.666412 L28.3333333,38.666412 L28.3333333,14.4997453 L37.7333333,14.4997453 L33.5666667,26.9997453 L31.6666667,26.9997453 C31.2064294,26.9997453 30.8333333,27.3728414 30.8333333,27.8330787 C30.8333333,28.141412 30.8833333,35.3330787 35,35.3330787 L43.3333333,35.3330787 C47.45,35.3330787 47.5,28.141412 47.5,27.8330787 C47.5,27.3728414 47.126904,26.9997453 46.6666667,26.9997453 Z M20,33.666412 L11.6666667,33.666412 C9.93333333,33.666412 9.34166667,30.5330787 9.16666667,28.666412 L22.5,28.666412 C22.3333333,30.5330787 21.7416667,33.666412 20,33.666412 Z M11.9916667,26.9997453 L15.8333333,15.466412 L19.675,26.9997453 L11.9916667,26.9997453 Z M36.2416667,41.2247453 L37.2666667,45.3330787 L17.7333333,45.3330787 L18.7583333,41.2247453 C18.8920176,40.6990942 19.3659511,40.331624 19.9083333,40.3330787 L35.0916667,40.3330787 C35.6340489,40.331624 36.1079824,40.6990942 36.2416667,41.2247453 Z M39.1666667,15.466412 L43.0083333,26.9997453 L35.325,26.9997453 L39.1666667,15.466412 Z M43.3333333,33.666412 L35,33.666412 C33.2666667,33.666412 32.675,30.5330787 32.5,28.666412 L45.8333333,28.666412 C45.6583333,30.5330787 45.075,33.666412 43.3333333,33.666412 Z"/>
  </g>
</svg>
