<svg xmlns="http://www.w3.org/2000/svg" width="40" height="40" viewBox="0 0 40 40">
  <g fill="none" fill-rule="evenodd">
    <circle cx="20" cy="19.825" r="20" fill="#FFDA69"/>
    <path fill="#252B39" fill-rule="nonzero" d="M28.7719298,17.3242308 C27.415441,17.3242308 26.3157895,16.0733436 26.3157895,14.530296 C26.3157895,12.9872484 27.415441,11.7363612 28.7719298,11.7363612 C30.1284187,11.7363612 31.2280702,12.9872484 31.2280702,14.530296 C31.2280702,16.0733436 30.1284187,17.3242308 28.7719298,17.3242308 Z M11.2280702,17.3242308 C9.87158132,17.3242308 8.77192982,16.0733436 8.77192982,14.530296 C8.77192982,12.9872484 9.87158132,11.7363612 11.2280702,11.7363612 C12.584559,11.7363612 13.6842105,12.9872484 13.6842105,14.530296 C13.6842105,16.0733436 12.584559,17.3242308 11.2280702,17.3242308 Z"/>
    <path stroke="#252B39" stroke-linecap="round" stroke-width="3" d="M13.8351738,28.0779934 L26.1648262,28.0779934"/>
  </g>
</svg>
