<svg xmlns="http://www.w3.org/2000/svg" xmlns:xlink="http://www.w3.org/1999/xlink" width="40" height="40" viewBox="0 0 40 40">
  <defs>
    <path id="love-a" d="M0,0 C0,7.17001254 5.8124436,12.9824561 12.9824561,12.9824561 C20.1524687,12.9824561 25.9649123,7.17001254 25.9649123,0"/>
  </defs>
  <g fill="none" fill-rule="evenodd">
    <circle cx="20" cy="20" r="20" fill="#FFDA69"/>
    <path fill="#F55065" d="M4.27507626,8.22812526 C4.21854171,7.99092937 4.18861041,7.74341459 4.18861041,7.48890897 C4.18861041,5.73459271 5.61076473,4.31243838 7.36508099,4.31243838 C8.59435089,4.31243838 9.66053031,5.01071168 10.1886104,6.03224942 C10.7166905,5.01071168 11.7828699,4.31243838 13.0121398,4.31243838 C14.7664561,4.31243838 16.1886104,5.73459271 16.1886104,7.48890897 C16.1886104,7.7175576 16.164452,7.94056374 16.1185485,8.15551411 C16.1148621,8.19707029 16.1088254,8.23956804 16.1003751,8.28302662 C15.4827281,11.4594972 10.2768457,15.0771443 10.2768457,15.0771443 C10.2768457,15.0771443 4.45331629,11.2830266 4.2768457,8.28302662 C4.27575866,8.26454698 4.27517099,8.24624709 4.27507626,8.22812526 Z" transform="rotate(-15 10.189 9.695)"/>
    <path fill="#F55065" d="M23.8978554,8.22812526 C23.8413209,7.99092937 23.8113896,7.74341459 23.8113896,7.48890897 C23.8113896,5.73459271 25.2335439,4.31243838 26.9878602,4.31243838 C28.2171301,4.31243838 29.2833095,5.01071168 29.8113896,6.03224942 C30.3394697,5.01071168 31.4056491,4.31243838 32.634919,4.31243838 C34.3892353,4.31243838 35.8113896,5.73459271 35.8113896,7.48890897 C35.8113896,7.7175576 35.7872312,7.94056374 35.7413277,8.15551411 C35.7376413,8.19707029 35.7316046,8.23956804 35.7231543,8.28302662 C35.1055072,11.4594972 29.8996249,15.0771443 29.8996249,15.0771443 C29.8996249,15.0771443 24.0760955,11.2830266 23.8996249,8.28302662 C23.8985379,8.26454698 23.8979502,8.24624709 23.8978554,8.22812526 Z" transform="rotate(15 29.811 9.695)"/>
    <g transform="translate(7.018 19.65)">
      <mask id="love-b" fill="#fff">
        <use xlink:href="#love-a"/>
      </mask>
      <use fill="#252B39" xlink:href="#love-a"/>
      <path fill="#F55065" d="M6.07425543e-07,16.1403509 C6.07425543e-07,16.1403509 3.15789541,18.596491 12.6157647,18.5964912 C22.0736339,18.5964915 25.6140351,16.1403509 25.6140351,16.1403509 L12.6157647,4.21052632 L6.07425543e-07,16.1403509 Z" mask="url(#love-b)" transform="rotate(-180 12.807 11.404)"/>
    </g>
  </g>
</svg>
