<svg xmlns="http://www.w3.org/2000/svg" width="40" height="40" viewBox="0 0 40 40">
  <g fill="none" fill-rule="evenodd">
    <circle cx="20" cy="20" r="20" fill="#FFDA69"/>
    <path fill="#252B39" fill-rule="nonzero" d="M25.6830285,30.2998835 C24.2665375,28.7770494 22.2839247,27.8947368 20.1624626,27.8947368 C18.0564544,27.8947368 16.0869429,28.7641848 14.6720351,30.267671 C14.2736173,30.6910312 14.2938371,31.3572139 14.7171973,31.7556316 C15.1405575,32.1540494 15.8067401,32.1338296 16.2051579,31.7104694 C17.2262424,30.6254613 18.6430647,30 20.1624626,30 C21.6929882,30 23.1192821,30.6347366 24.1415329,31.7337329 C24.5374794,32.1594052 25.2035331,32.1835026 25.6292054,31.7875561 C26.0548777,31.3916095 26.0789751,30.7255558 25.6830285,30.2998835 L25.6830285,30.2998835 Z"/>
    <path fill="#548CFF" d="M35.0877193,36.4912281 C35.0877193,38.4290693 33.5167886,40 31.5789474,40 C29.6411061,40 28.0701754,38.4290693 28.0701754,36.4912281 C28.0701754,35.9232941 28.2051079,35.3868753 28.4446637,34.9122807 L31.5789474,29.122807 L34.7132311,34.9122807 C34.9527869,35.3868753 35.0877193,35.9232941 35.0877193,36.4912281 Z"/>
    <path fill="#252B39" fill-rule="nonzero" d="M9.56967685,15.4204187 C8.78337526,15.7222516 8.16309353,16.3078382 7.81274465,17.0551564 C7.60710235,17.4938055 7.08480098,17.6826948 6.64615187,17.4770525 C6.20750277,17.2714102 6.01861343,16.7491089 6.22425572,16.3104598 C6.76520347,15.1565811 7.72704971,14.2485352 8.94096115,13.7825583 C10.0450277,13.3587468 11.2405065,13.3452831 12.3361148,13.7226621 C12.7941642,13.8804358 13.0375857,14.3796591 12.879812,14.8377085 C12.7220382,15.2957579 12.2228149,15.5391794 11.7647656,15.3814057 C11.0556501,15.137153 10.2849991,15.1458322 9.56967685,15.4204187 Z M30.3985174,15.5628947 C29.6831952,15.2883082 28.9125442,15.279629 28.2034287,15.5238817 C27.7453793,15.6816554 27.2461561,15.4382339 27.0883823,14.9801845 C26.9306086,14.5221351 27.1740301,14.0229119 27.6320795,13.8651381 C28.7276878,13.4877592 29.9231665,13.5012228 31.0272331,13.9250343 C32.2411446,14.3910112 33.2029908,15.2990572 33.7439386,16.4529358 C33.9495809,16.8915849 33.7606915,17.4138863 33.3220424,17.6195286 C32.8833933,17.8251709 32.3610919,17.6362815 32.1554496,17.1976324 C31.8051007,16.4503142 31.184819,15.8647276 30.3985174,15.5628947 Z M28.7719298,24.0350877 C27.415441,24.0350877 26.3157895,22.7842005 26.3157895,21.241153 C26.3157895,19.6981054 27.415441,18.4472182 28.7719298,18.4472182 C30.1284187,18.4472182 31.2280702,19.6981054 31.2280702,21.241153 C31.2280702,22.7842005 30.1284187,24.0350877 28.7719298,24.0350877 Z M11.2280702,24.0350877 C9.87158132,24.0350877 8.77192982,22.7842005 8.77192982,21.241153 C8.77192982,19.6981054 9.87158132,18.4472182 11.2280702,18.4472182 C12.584559,18.4472182 13.6842105,19.6981054 13.6842105,21.241153 C13.6842105,22.7842005 12.584559,24.0350877 11.2280702,24.0350877 Z"/>
  </g>
</svg>
