<svg xmlns="http://www.w3.org/2000/svg" width="40" height="40" viewBox="0 0 40 40">
  <g fill="#FFF" fill-rule="evenodd" transform="translate(-1)">
    <rect width="40" height="40" x=".999" fill-opacity=".1" rx="20"/>
    <path fill-rule="nonzero" d="M21.0012309,14.8733965 C18.1635287,14.8733965 15.8746274,17.1622978 15.8746274,20 C15.8746274,22.8377022 18.1635287,25.1266035 21.0012309,25.1266035 C23.8389331,25.1266035 26.1278344,22.8377022 26.1278344,20 C26.1278344,17.1622978 23.8389331,14.8733965 21.0012309,14.8733965 Z M21.0012309,23.3329615 C19.1674328,23.3329615 17.6682694,21.8382599 17.6682694,20 C17.6682694,18.1617401 19.162971,16.6670385 21.0012309,16.6670385 C22.8394908,16.6670385 24.3341924,18.1617401 24.3341924,20 C24.3341924,21.8382599 22.835029,23.3329615 21.0012309,23.3329615 L21.0012309,23.3329615 Z M27.5333001,14.6636921 C27.5333001,15.3284997 26.9978846,15.8594534 26.3375388,15.8594534 C25.6727312,15.8594534 25.1417775,15.3240379 25.1417775,14.6636921 C25.1417775,14.0033463 25.677193,13.4679308 26.3375388,13.4679308 C26.9978846,13.4679308 27.5333001,14.0033463 27.5333001,14.6636921 Z M30.9287267,15.8773006 C30.8528762,14.2755159 30.4870089,12.8566648 29.3135566,11.6876743 C28.1445661,10.5186838 26.725715,10.1528165 25.1239303,10.0725042 C23.4730658,9.97880647 18.5249342,9.97880647 16.8740697,10.0725042 C15.2767468,10.1483547 13.8578957,10.514222 12.6844434,11.6832125 C11.5109911,12.852203 11.1495856,14.2710541 11.0692733,15.8728388 C10.9755756,17.5237033 10.9755756,22.4718349 11.0692733,24.1226994 C11.1451238,25.7244841 11.5109911,27.1433352 12.6844434,28.3123257 C13.8578957,29.4813162 15.272285,29.8471835 16.8740697,29.9274958 C18.5249342,30.0211935 23.4730658,30.0211935 25.1239303,29.9274958 C26.725715,29.8516453 28.1445661,29.485778 29.3135566,28.3123257 C30.4825471,27.1433352 30.8484144,25.7244841 30.9287267,24.1226994 C31.0224244,22.4718349 31.0224244,17.5281651 30.9287267,15.8773006 Z M28.7959883,25.8940323 C28.4479682,26.7685443 27.774237,27.4422755 26.8952632,27.7947574 C25.5790335,28.3167875 22.4557764,28.196319 21.0012309,28.196319 C19.5466854,28.196319 16.4189665,28.3123257 15.1071985,27.7947574 C14.2326866,27.4467373 13.5589554,26.7730061 13.2064735,25.8940323 C12.6844434,24.5778026 12.8049119,21.4545455 12.8049119,20 C12.8049119,18.5454545 12.6889052,15.4177356 13.2064735,14.1059677 C13.5544936,13.2314557 14.2282248,12.5577245 15.1071985,12.2052426 C16.4234283,11.6832125 19.5466854,11.803681 21.0012309,11.803681 C22.4557764,11.803681 25.5834953,11.6876743 26.8952632,12.2052426 C27.7697752,12.5532627 28.4435064,13.2269939 28.7959883,14.1059677 C29.3180184,15.4221974 29.1975499,18.5454545 29.1975499,20 C29.1975499,21.4545455 29.3180184,24.5822644 28.7959883,25.8940323 Z"/>
  </g>
</svg>
