<svg xmlns="http://www.w3.org/2000/svg" width="40" height="40" viewBox="0 0 40 40">
  <g fill="none" fill-rule="evenodd">
    <circle cx="20" cy="20" r="20" fill="#BEBEBE"/>
    <g transform="translate(8 8)">
      <path fill="#333" fill-rule="nonzero" d="M13.1785113,12 L17.5892557,16.4107444 C17.9146926,16.7361813 17.9146926,17.2638188 17.5892557,17.5892557 C17.2638188,17.9146926 16.7361813,17.9146926 16.4107444,17.5892557 L12,13.1785113 L7.58925563,17.5892557 C7.26381872,17.9146926 6.73618123,17.9146926 6.41074432,17.5892557 C6.08530741,17.2638188 6.08530741,16.7361813 6.41074432,16.4107444 L10.8214887,12 L6.41074432,7.58925563 C6.08530741,7.26381872 6.08530741,6.73618123 6.41074432,6.41074432 C6.73618123,6.08530741 7.26381872,6.08530741 7.58925563,6.41074432 L12,10.8214887 L16.4107444,6.41074432 C16.7361813,6.08530741 17.2638188,6.08530741 17.5892557,6.41074432 C17.9146926,6.73618123 17.9146926,7.26381872 17.5892557,7.58925563 L13.1785113,12 Z"/>
      <rect width="24" height="24"/>
    </g>
  </g>
</svg>
